<svg width="148" height="221" viewBox="0 0 148 221" fill="none" xmlns="http://www.w3.org/2000/svg">
<path opacity="0.7" d="M147.891 5.77347L137.894 11.5533L137.887 0.00626739L147.891 5.77347ZM0.137833 218.867L49.3311 218.836L49.3324 220.836L0.139093 220.867L0.137833 218.867ZM68.3191 199.824L68.0967 25.8237L70.0967 25.8225L70.3191 199.823L68.3191 199.824ZM89.0835 4.81052L138.89 4.77914L138.891 6.77914L89.0848 6.81052L89.0835 4.81052ZM68.0967 25.8237C68.0894 14.2257 77.4855 4.81783 89.0835 4.81052L89.0848 6.81052C78.5914 6.81713 70.0901 15.3291 70.0967 25.8225L68.0967 25.8237ZM49.3311 218.836C59.8245 218.83 68.3258 210.317 68.3191 199.824L70.3191 199.823C70.3265 211.421 60.9304 220.829 49.3324 220.836L49.3311 218.836Z" fill='url(#a)' fill-opacity="0.6"/>
<defs>
    <defs>
      <linearGradient id='a' gradientUnits='objectBoundingBox' x1='0' y1='0' x2='1' y2='1'>
         <stop offset='0' stop-color='red'>
            <animate attributeName="stop-color"
               values="red;purple;blue;green;yellow;orange;red;" dur="20s" repeatCount="indefinite">
            </animate>
         </stop>
         <stop offset='.5' stop-color='purple'>
            <animate attributeName="stop-color"
               values="purple;blue;green;yellow;orange;red;purple;" dur="20s" repeatCount="indefinite">
            </animate>
         </stop>
         <stop offset='1' stop-color='blue'>
            <animate attributeName="stop-color"
               values="blue;green;yellow;orange;red;purple;blue;" dur="20s" repeatCount="indefinite">
            </animate>
         </stop>
         <animateTransform attributeName="gradientTransform" type="rotate" from="0 .5 .5" to="720 .5 .5"
            dur="20s" repeatCount="indefinite" />
      </linearGradient>
   </defs>
</defs>


</svg>
