<svg width="148" height="221" viewBox="0 0 148 221" fill="none" xmlns="http://www.w3.org/2000/svg">
<path opacity="0.7" d="M147.891 215.094L137.894 209.314L137.887 220.861L147.891 215.094ZM0.137833 1.99999L49.3311 2.03099L49.3324 0.0309867L0.139093 -6.29887e-06L0.137833 1.99999ZM68.3191 21.043L68.0967 195.044L70.0967 195.045L70.3191 21.0442L68.3191 21.043ZM89.0835 216.057L138.89 216.088L138.891 214.088L89.0848 214.057L89.0835 216.057ZM68.0967 195.044C68.0894 206.642 77.4855 216.049 89.0835 216.057L89.0848 214.057C78.5914 214.05 70.0901 205.538 70.0967 195.045L68.0967 195.044ZM49.3311 2.03099C59.8245 2.0376 68.3258 10.55 68.3191 21.043L70.3191 21.0442C70.3265 9.44622 60.9304 0.0382937 49.3324 0.0309867L49.3311 2.03099Z" fill='url(#a)'  fill-opacity="0.5"/>
<defs>
    <defs>
      <linearGradient id='a' gradientUnits='objectBoundingBox' x1='0' y1='0' x2='1' y2='1'>
         <stop offset='0' stop-color='red'>
            <animate attributeName="stop-color"
               values="red;purple;blue;green;yellow;orange;red;" dur="20s" repeatCount="indefinite">
            </animate>
         </stop>
         <stop offset='.5' stop-color='purple'>
            <animate attributeName="stop-color"
               values="purple;blue;green;yellow;orange;red;purple;" dur="20s" repeatCount="indefinite">
            </animate>
         </stop>
         <stop offset='1' stop-color='blue'>
            <animate attributeName="stop-color"
               values="blue;green;yellow;orange;red;purple;blue;" dur="20s" repeatCount="indefinite">
            </animate>
         </stop>
         <animateTransform attributeName="gradientTransform" type="rotate" from="0 .5 .5" to="720 .5 .5"
            dur="20s" repeatCount="indefinite" />
      </linearGradient>
   </defs>
</defs>
 






 
</svg>
