<svg xmlns="http://www.w3.org/2000/svg" viewBox="0 0 400 300" width="406" height="306" class="illustration styles_illustrationTablet__1DWOa"><g id="_544_summer_landscape_flatline" data-name="#544_summer_landscape_flatline"><rect x="36.37" y="38.48" width="327.25" height="223.03" fill="#fff"></rect><path d="M363.63,262H36.37a.51.51,0,0,1-.5-.5v-223a.51.51,0,0,1,.5-.5H363.63a.51.51,0,0,1,.5.5v223A.51.51,0,0,1,363.63,262ZM36.87,261H363.13V39H36.87Z" fill="#231f20"></path><path d="M50.1,151.4S164.59,105.23,200,106.35,302.42,151.4,302.42,151.4Z" fill="#e6e7e8"></path><path d="M325.6,112c11.26,1.15,37.56,16,37.56,16V151.4H254.08S314.34,110.82,325.6,112Z" fill="#e6e7e8"></path><rect x="36.37" y="151.19" width="327.26" height="110.33" fill="#18a268"></rect><path d="M363.63,262H36.37a.5.5,0,0,1-.5-.5V151.19a.5.5,0,0,1,.5-.5H363.63a.5.5,0,0,1,.5.5V261.52A.5.5,0,0,1,363.63,262ZM36.87,261H363.13V151.69H36.87Z" fill="#231f20"></path><path d="M363.63,251.62v9.9H36.37V151.19h71a21.39,21.39,0,0,1,1,2.09c1.24,2.9,2.12,6.33,4.67,8,1.56,1,3.45,1.11,5.24,1.39,5.35.85,13.28,4.24,16,9.78,2.57,5.34-.24,12.08,3.21,17.27C147,204.05,190,203.21,206,205c4.43.48,49.28,3.75,45.19,12-6.19,12.51-22.52,17.51-12.95,24.51S363.63,251.62,363.63,251.62Z" fill="#fff"></path><path d="M363.63,262H36.37a.5.5,0,0,1-.5-.5V151.19a.5.5,0,0,1,.5-.5h71a.47.47,0,0,1,.43.25,19.41,19.41,0,0,1,1.06,2.14c.24.57.47,1.15.7,1.74.91,2.34,1.86,4.77,3.78,6A10.11,10.11,0,0,0,117.5,162l.9.13c5,.8,13.46,4.13,16.32,10.06,1.24,2.57,1.28,5.44,1.32,8.22,0,3.25.08,6.32,1.86,9,7.54,11.36,36.76,13.07,56.1,14.2,4.77.28,8.9.52,12,.86l2,.19c26.94,2.45,41.19,5.7,43.56,9.93a2.66,2.66,0,0,1,.05,2.61c-2.47,5-6.6,8.87-9.91,12s-6.07,5.71-5.92,8.11c.07,1.27,1,2.51,2.72,3.79,9.35,6.83,124,10,125.13,10.05a.5.5,0,0,1,.49.5v9.9A.5.5,0,0,1,363.63,262ZM36.87,261H363.13V252.1c-9.27-.25-115.83-3.37-125.21-10.22-2-1.47-3-3-3.13-4.54-.18-2.87,2.65-5.53,6.23-8.89,3.43-3.22,7.31-6.87,9.7-11.7a1.68,1.68,0,0,0,0-1.68c-1.49-2.66-10.12-6.45-42.78-9.43-.93-.08-1.61-.14-2-.19-3.12-.34-7.23-.58-12-.85-19.54-1.15-49.06-2.87-56.88-14.65-1.93-2.91-2-6.27-2-9.52,0-2.8-.08-5.44-1.22-7.81-2.69-5.58-10.79-8.74-15.58-9.5l-.87-.13a10.91,10.91,0,0,1-4.56-1.33c-2.19-1.4-3.2-4-4.17-6.48-.23-.58-.45-1.15-.69-1.71s-.57-1.25-.86-1.78H36.87Z" fill="#231f20"></path><circle cx="278.32" cy="78.86" r="19.99" fill="#e6e7e8"></circle><path d="M53.89,227S98.31,142.53,92.15,96l6.25-1.18S101.07,163,71.51,231.2Z" fill="#231f20"></path><path d="M71.51,231.7l-.12,0-17.61-4.24a.51.51,0,0,1-.34-.28.49.49,0,0,1,0-.44c.44-.84,44.28-84.81,38.2-130.65a.5.5,0,0,1,.41-.55l6.24-1.18a.5.5,0,0,1,.41.1.52.52,0,0,1,.19.37c0,.68,2.33,69.09-26.93,136.59A.53.53,0,0,1,71.51,231.7Zm-16.88-5.08,16.58,4c27.58-63.86,26.86-128.4,26.7-135.18l-5.2,1C98.21,140.65,58.48,219.14,54.63,226.62Z" fill="#231f20"></path><path d="M95.42,97.7s2.76-18.3-3-30.42S77.2,52.62,62.65,56.5A106.45,106.45,0,0,1,95.42,97.7Z" fill="#231f20"></path><path d="M95.42,98.2a.49.49,0,0,1-.45-.3,106.93,106.93,0,0,0-32.6-41,.5.5,0,0,1,.15-.9c15.55-4.14,24.61-.84,30.31,11.06,5.8,12.11,3.12,30.52,3.09,30.71a.51.51,0,0,1-.43.42ZM63.8,56.72A109.11,109.11,0,0,1,95.14,95.87c.51-4.86,1.42-18.71-3.21-28.37C86.61,56.39,78.16,53.13,63.8,56.72Z" fill="#231f20"></path><path d="M95.42,97.7s21.93-35.64,37.41-39.78c0,0-14.81-10.67-28,3.1S95.42,97.7,95.42,97.7Z" fill="#231f20"></path><path d="M95.42,98.2h-.09a.49.49,0,0,1-.4-.41c0-.23-3.62-23.31,9.57-37.1S133,57.4,133.12,57.51a.49.49,0,0,1,.2.5.48.48,0,0,1-.36.39c-15.11,4-36.89,39.21-37.11,39.56A.51.51,0,0,1,95.42,98.2Zm24.74-43.77c-4.56,0-9.86,1.62-14.94,6.94-11,11.51-10,29.76-9.47,34.88,1.75-2.75,6.4-9.85,12.18-17.2,9.39-11.94,17.37-19.09,23.73-21.3A23,23,0,0,0,120.16,54.43Z" fill="#231f20"></path><path d="M95.42,97.7s1.91-15,12.23-17.62,24.07-1.72,29.17,8.77C136.82,88.85,114.63,85.24,95.42,97.7Z" fill="#231f20"></path><path d="M95.42,98.2a.42.42,0,0,1-.26-.08.47.47,0,0,1-.23-.48C95,97,97,82.23,107.53,79.6s24.47-1.8,29.74,9a.51.51,0,0,1-.05.52.5.5,0,0,1-.48.2c-.22,0-22.23-3.43-41,8.77A.57.57,0,0,1,95.42,98.2Zm22-18.85a40.23,40.23,0,0,0-9.68,1.22c-8.28,2.07-11,12.66-11.67,16.11,16.66-10.3,35.41-8.94,39.83-8.45C132.26,81.67,124.89,79.35,117.45,79.35Z" fill="#231f20"></path><path d="M95.42,97.7s-.5-9.24-11.35-15.91-24.25-.93-32.51,7.51-6.93,20.34-6.93,20.34S75.94,85.33,95.42,97.7Z" fill="#231f20"></path><path d="M44.63,110.14a.48.48,0,0,1-.2,0,.5.5,0,0,1-.3-.4c0-.12-1.26-12.24,7.07-20.75C63,76.89,76.35,76.45,84.33,81.36c11,6.73,11.57,15.93,11.59,16.31a.49.49,0,0,1-.24.46.49.49,0,0,1-.52,0c-19-12-49.91,11.67-50.23,11.92A.45.45,0,0,1,44.63,110.14Zm28.8-30.72c-6.65,0-14.36,2.92-21.51,10.23-6.71,6.85-7,16.14-6.85,19A98.89,98.89,0,0,1,62.52,98.57c13.08-5.77,24.21-6.4,32.26-1.84-.49-2.53-2.56-9.34-11-14.52A19.86,19.86,0,0,0,73.43,79.42Z" fill="#231f20"></path><path d="M95.42,97.7s1.07-3.15-5-4.94-12.1,1-18.16,7.46-6.62,20.85-2.67,31.51" fill="#231f20"></path><path d="M69.57,132.23a.52.52,0,0,1-.47-.33c-4.82-13-2.37-26.49,2.77-32,6.44-6.91,12.55-9.4,18.67-7.6,2.61.77,4.32,1.89,5.06,3.32a3.07,3.07,0,0,1,.3,2.26.49.49,0,0,1-.64.31.48.48,0,0,1-.31-.62A2.16,2.16,0,0,0,94.7,96c-.43-.8-1.55-1.94-4.44-2.79-5.72-1.68-11.5.71-17.65,7.32-5.55,6-6.7,19.86-2.57,31a.52.52,0,0,1-.3.65A.47.47,0,0,1,69.57,132.23Z" fill="#231f20"></path><path d="M95.42,97.7s9.62-7.38,21.81,1.53c14.76,10.79,12.08,23.15,4.1,35.85C121.33,135.08,113.88,110.69,95.42,97.7Z" fill="#231f20"></path><path d="M121.33,135.58h-.07a.53.53,0,0,1-.41-.35c-.07-.25-7.61-24.38-25.72-37.12a.5.5,0,0,1,0-.81c.1-.07,10-7.5,22.4,1.52,16.51,12.07,10.94,25.86,4.23,36.53A.5.5,0,0,1,121.33,135.58Zm-25-37.86c15.84,11.5,23.52,31.46,25.16,36.19,9-14.82,7.59-25.42-4.53-34.28C106.84,92.25,98.52,96.36,96.3,97.72Z" fill="#231f20"></path><path d="M101.55,244.51S132,154.09,169.89,126.44l-3.45-5.33s-51.19,45.13-80.12,113.58Z" fill="#231f20"></path><path d="M101.55,245a.53.53,0,0,1-.27-.08l-15.23-9.82a.51.51,0,0,1-.19-.61c28.64-67.77,79.73-113.32,80.24-113.77a.53.53,0,0,1,.4-.12.49.49,0,0,1,.36.23l3.45,5.33a.49.49,0,0,1-.12.67C132.83,154.09,102.33,243.76,102,244.67a.49.49,0,0,1-.3.31A.51.51,0,0,1,101.55,245ZM87,234.5l14.34,9.24c2.75-8,32.12-90.88,67.93-117.42l-2.89-4.45C161.32,126.43,114.12,170.47,87,234.5Z" fill="#231f20"></path><path d="M166.41,125.24s11.34-14.63,24.11-18.79,21.09.86,28.33,14.06A106.54,106.54,0,0,0,166.41,125.24Z" fill="#231f20"></path><path d="M166.41,125.74a.49.49,0,0,1-.4-.8c.12-.15,11.59-14.81,24.36-19,12.54-4.08,21.18.19,28.91,14.3a.5.5,0,0,1-.54.73,107,107,0,0,0-52.16,4.71A.51.51,0,0,1,166.41,125.74Zm32.23-20.22a25.71,25.71,0,0,0-8,1.4c-10.2,3.32-19.58,13.54-22.75,17.26a109.1,109.1,0,0,1,50-4.34C212.36,110.1,206.32,105.52,198.64,105.52Z" fill="#231f20"></path><path d="M166.41,125.24s10.65-40.47,3-54.53c0,0,17.93,3.36,17.06,22.39S166.41,125.24,166.41,125.24Z" fill="#231f20"></path><path d="M166.41,125.74a.52.52,0,0,1-.29-.09.49.49,0,0,1-.19-.54c.1-.4,10.51-40.43,3-54.16a.49.49,0,0,1,0-.53.51.51,0,0,1,.5-.2c.18,0,18.35,3.66,17.47,22.9-.88,19.06-20.05,32.4-20.25,32.53A.47.47,0,0,1,166.41,125.74Zm3.89-54.29c2.8,6.12,3.13,16.83,1,31.87-1.33,9.25-3.26,17.52-4,20.69,4.07-3.15,18-15,18.7-30.94S174.06,72.47,170.3,71.45Z" fill="#231f20"></path><path d="M166.41,125.24s9.57-11.75,4.31-21-15.37-18.61-26.48-15.06C144.24,89.18,162.17,102.75,166.41,125.24Z" fill="#231f20"></path><path d="M166.41,125.74h-.12a.49.49,0,0,1-.37-.4c-4.16-22-21.8-35.61-22-35.75a.5.5,0,0,1-.19-.48.49.49,0,0,1,.34-.39C155.57,85,165.84,94.64,171.15,104s-4,21.08-4.35,21.57A.5.5,0,0,1,166.41,125.74ZM145.3,89.4c3.41,2.85,17.34,15.49,21.38,34.64,2-2.87,7.82-12.14,3.6-19.56C165.3,95.71,155.84,86.69,145.3,89.4Z" fill="#231f20"></path><path d="M166.41,125.24s7-6,19.35-2.77,17.41,16.91,17,28.71-9.93,19.06-9.93,19.06S188.81,130.8,166.41,125.24Z" fill="#231f20"></path><path d="M192.83,170.74a.71.71,0,0,1-.2,0,.51.51,0,0,1-.3-.41c0-.39-4.24-39.15-26-44.56a.53.53,0,0,1-.37-.37.51.51,0,0,1,.16-.5c.3-.25,7.39-6.14,19.81-2.87,9.06,2.39,18,12.35,17.37,29.21-.4,11.9-10,19.36-10.13,19.44A.54.54,0,0,1,192.83,170.74ZM167.56,125c8.86,2.68,16.08,11.16,20.93,24.61a99,99,0,0,1,4.72,19.61c2.17-1.93,8.73-8.53,9-18.09.56-16.32-7.95-25.93-16.63-28.21C176.08,120.44,169.72,123.65,167.56,125Z" fill="#231f20"></path><path d="M166.41,125.24s1.54-2.94,7,.22,7.66,9.42,7.14,18.3-10.52,19.18-21,23.67" fill="#231f20"></path><path d="M159.63,167.94a.51.51,0,0,1-.46-.31.49.49,0,0,1,.26-.65c10.91-4.7,20.18-15.13,20.66-23.25.53-9-1.72-14.85-6.89-17.83-2.61-1.5-4.2-1.53-5.08-1.29a2.12,2.12,0,0,0-1.27.87.51.51,0,0,1-.68.2.49.49,0,0,1-.2-.67,3.09,3.09,0,0,1,1.84-1.35c1.55-.45,3.53,0,5.89,1.37,5.53,3.19,7.94,9.32,7.38,18.76-.44,7.54-8.51,18.62-21.25,24.1A.46.46,0,0,1,159.63,167.94Z" fill="#231f20"></path><path d="M166.41,125.24s-1.29-12-16.15-14.72c-18-3.24-25.1,7.23-28.78,21.78C121.48,132.3,144.27,120.85,166.41,125.24Z" fill="#231f20"></path><path d="M121.48,132.8a.51.51,0,0,1-.31-.11.52.52,0,0,1-.17-.52c3.08-12.21,9.2-25.76,29.34-22.15,7.86,1.42,11.94,5.45,14,8.59a16.63,16.63,0,0,1,2.59,6.58.54.54,0,0,1-.16.42.48.48,0,0,1-.44.12c-21.72-4.3-44.38,6.9-44.6,7A.49.49,0,0,1,121.48,132.8Zm22.58-22.38c-11.11,0-18,6.68-21.83,21,4.56-2.07,24.31-10.29,43.56-6.77-.55-2.54-3.35-11.41-15.62-13.61A34.6,34.6,0,0,0,144.06,110.42Z" fill="#231f20"></path><path d="M162.85,261.52H36.37V210.66c8-.08,16-.85,23.5,2s12.33,10.06,7.93,15.26c10.36-5,25.48-3.81,34.11,2.75,6.17-1.89,13.74-1,18.85,2.16s7.49,8.54,5.95,13.33c3.7-3.29,10.72-4.24,15.75-2.12s7.5,7,5.55,11.06A27.57,27.57,0,0,1,162.85,261.52Z" fill="#231f20"></path><path d="M162.85,262H36.37a.5.5,0,0,1-.5-.5V210.66a.5.5,0,0,1,.5-.5l3.84-.08c6.61-.16,13.45-.32,19.83,2.1,4.87,1.84,8.67,5.53,9.66,9.39a7.11,7.11,0,0,1-.51,5.17c10.38-4.25,24.4-2.89,32.82,3.37,6.26-1.84,13.87-.93,19,2.28,4.81,3,7.29,7.88,6.51,12.5a17.26,17.26,0,0,1,15.13-1.32,10.71,10.71,0,0,1,6,5.87,7.48,7.48,0,0,1,.06,5.23,27.9,27.9,0,0,1,14.44,6.47.48.48,0,0,1,.14.55A.49.49,0,0,1,162.85,262Zm-126-1H161.43A27.26,27.26,0,0,0,148,255.58a.48.48,0,0,1-.38-.25.5.5,0,0,1,0-.46,6.27,6.27,0,0,0,.17-5.08,9.68,9.68,0,0,0-5.46-5.3c-4.84-2-11.67-1.13-15.23,2a.5.5,0,0,1-.6,0,.51.51,0,0,1-.2-.58c1.46-4.57-.85-9.69-5.74-12.75s-12.4-4-18.44-2.1a.55.55,0,0,1-.45-.08c-8.42-6.4-23.49-7.61-33.59-2.7a.5.5,0,0,1-.6-.78,6.19,6.19,0,0,0,1.32-5.76c-.92-3.55-4.48-7-9-8.7-6.2-2.35-12.94-2.19-19.46-2-1.12,0-2.24.06-3.36.07Z" fill="#231f20"></path><path d="M291.72,157.43H274.54a.51.51,0,0,1-.5-.5.5.5,0,0,1,.5-.5h17.18a.5.5,0,0,1,.5.5A.5.5,0,0,1,291.72,157.43Z" fill="#fff"></path><path d="M304.39,161.18H281.27a.5.5,0,0,1,0-1h23.12a.5.5,0,0,1,0,1Z" fill="#fff"></path><path d="M296.93,166.44H278.32a.51.51,0,0,1-.5-.5.5.5,0,0,1,.5-.5h18.61a.5.5,0,0,1,.5.5A.51.51,0,0,1,296.93,166.44Z" fill="#fff"></path><path d="M304.26,170.19H285.1a.5.5,0,0,1,0-1h19.16a.5.5,0,0,1,0,1Z" fill="#fff"></path><path d="M295,174.83h-11.9a.5.5,0,0,1-.5-.5.51.51,0,0,1,.5-.5H295a.51.51,0,0,1,.5.5A.5.5,0,0,1,295,174.83Z" fill="#fff"></path><path d="M294.68,179.06h-7.05a.5.5,0,0,1-.5-.5.5.5,0,0,1,.5-.5h7.05a.5.5,0,0,1,.5.5A.5.5,0,0,1,294.68,179.06Z" fill="#fff"></path><path d="M202.75,243.6a27.15,27.15,0,0,1-6.49-.59,1,1,0,0,0-1.23.7,1,1,0,0,0,.7,1.23,29,29,0,0,0,7,.66,1,1,0,0,0,0-2Z" fill="#e6e7e8"></path><path d="M153.75,223.81h-6.19a.5.5,0,0,0,0,1h6.19A.5.5,0,0,0,153.75,223.81Z" fill="#e6e7e8"></path><path d="M137.53,211l-3.37-1.14a.49.49,0,0,0-.61.34.51.51,0,0,0,.34.62l3.38,1.15a.5.5,0,0,0,.26-1Z" fill="#e6e7e8"></path><path d="M54.21,179.4l-3.38-.56a.52.52,0,0,0-.62.35.5.5,0,0,0,.35.61l3.38.56a.52.52,0,0,0,.62-.35A.51.51,0,0,0,54.21,179.4Z" fill="#e6e7e8"></path><path d="M56.34,166.94H53a.5.5,0,0,0,0,1h3.38a.5.5,0,0,0,0-1Z" fill="#e6e7e8"></path><path d="M104.2,181H99.13a.5.5,0,0,0,0,1h5.07A.5.5,0,0,0,104.2,181Z" fill="#e6e7e8"></path><path d="M103.64,168.63h-1.13a.5.5,0,0,0-.35.14.53.53,0,0,0-.15.36.51.51,0,0,0,.5.5h1.13a.51.51,0,0,0,.35-.15.53.53,0,0,0,.15-.35A.51.51,0,0,0,103.64,168.63Z" fill="#e6e7e8"></path><path d="M219.74,218.89a39.89,39.89,0,0,0-13.07-.86c-.63.07-.64,1.07,0,1a39.14,39.14,0,0,1,12.81.82C220.1,220,220.37,219,219.74,218.89Z" fill="#e6e7e8"></path><path d="M159.3,241.64a.46.46,0,0,0-.22-.3l-1.13-.57a.58.58,0,0,0-.39-.05.62.62,0,0,0-.3.23.51.51,0,0,0,.18.69l1.13.56a.53.53,0,0,0,.39.05.48.48,0,0,0,.29-.23A.43.43,0,0,0,159.3,241.64Z" fill="#e6e7e8"></path><path d="M252.86,251.4h-2.81a.51.51,0,0,0-.5.5.5.5,0,0,0,.5.5h2.81a.5.5,0,0,0,.5-.5A.51.51,0,0,0,252.86,251.4Z" fill="#e6e7e8"></path><path d="M322.69,255.92a29.25,29.25,0,0,1-9.44-1.13.5.5,0,0,0-.26,1,30.58,30.58,0,0,0,9.7,1.16C323.33,256.89,323.34,255.89,322.69,255.92Z" fill="#e6e7e8"></path><path d="M184.85,229.67a12.93,12.93,0,0,0-6.65,0,.5.5,0,0,0,.27,1,11.66,11.66,0,0,1,6.12,0A.5.5,0,0,0,184.85,229.67Z" fill="#e6e7e8"></path><path d="M178,249.53l-3-.38a.5.5,0,0,0-.5.5.51.51,0,0,0,.5.5l3,.38a.5.5,0,0,0,0-1Z" fill="#e6e7e8"></path><path d="M92.74,207.42l-3.75.4a.51.51,0,0,0-.5.5.5.5,0,0,0,.5.5l3.75-.4a.51.51,0,0,0,.5-.5A.5.5,0,0,0,92.74,207.42Z" fill="#e6e7e8"></path><path d="M94.24,193.48l-5.18.39a.49.49,0,0,0-.58-.29l-1,.41a.53.53,0,0,0-.36.55.5.5,0,0,0,.49.43l6.64-.49C94.88,194.44,94.89,193.44,94.24,193.48Z" fill="#e6e7e8"></path><path d="M66.1,189.84H61.22a.5.5,0,0,0,0,1H66.1A.5.5,0,0,0,66.1,189.84Z" fill="#e6e7e8"></path><path d="M47.69,201.54l-3-.37a.5.5,0,0,0-.5.5.52.52,0,0,0,.5.5l3,.37a.5.5,0,0,0,.5-.5A.52.52,0,0,0,47.69,201.54Z" fill="#e6e7e8"></path><path d="M70.71,171.46a.51.51,0,0,0-.61-.35l-2.25.4a.51.51,0,0,0-.35.62.52.52,0,0,0,.62.35l2.24-.4A.51.51,0,0,0,70.71,171.46Z" fill="#e6e7e8"></path><path d="M45.93,159.41a.52.52,0,0,0-.62-.35l-.29,0-.38,0a5.79,5.79,0,0,1-.72,0h-.11l-.16,0-.37-.08a5.88,5.88,0,0,1-.71-.23.5.5,0,0,0-.62.34.52.52,0,0,0,.35.62,6.12,6.12,0,0,0,3.28.33A.5.5,0,0,0,45.93,159.41Z" fill="#e6e7e8"></path><path d="M101.76,156.05h-1.13a.53.53,0,0,0-.35.15.51.51,0,0,0-.15.35.51.51,0,0,0,.5.5h1.13a.51.51,0,0,0,.35-.15.47.47,0,0,0,.15-.35A.51.51,0,0,0,101.76,156.05Z" fill="#e6e7e8"></path><path d="M67.22,156.43H66.1a.48.48,0,0,0-.5.5.51.51,0,0,0,.5.5h1.12a.55.55,0,0,0,.36-.15.52.52,0,0,0,.14-.35A.5.5,0,0,0,67.22,156.43Z" fill="#e6e7e8"></path><path d="M233.31,247.41l-6.74-1.77a.5.5,0,0,0-.26,1l6.73,1.77A.5.5,0,0,0,233.31,247.41Z" fill="#e6e7e8"></path></g></svg>