<svg width="4691" height="2556" viewBox="0 0 4691 2556" fill="none" xmlns="http://www.w3.org/2000/svg">
<path d="M3079.82 1700.31C3706.51 1374.65 4110.31 948.137 3981.73 747.68C3853.14 547.222 3240.87 648.724 2614.18 974.392C1987.48 1300.06 1583.69 1726.57 1712.27 1927.03C1840.86 2127.48 2453.12 2025.98 3079.82 1700.31Z" stroke="#F3F3F3" stroke-opacity="0.1"/>
<path d="M3026.19 1617.13C3509.94 1365.68 3821.63 1036.36 3722.38 881.59C3623.13 726.814 3150.51 805.185 2666.76 1056.64C2183.01 1308.09 1871.32 1637.4 1970.57 1792.18C2069.83 1946.94 2542.44 1868.58 3026.19 1617.13Z" stroke="#F3F3F3" stroke-opacity="0.1"/>
<path d="M2904.3 1530.93C3228.96 1357.24 3438.16 1129.77 3371.54 1022.86C3304.93 915.949 2987.73 970.084 2663.06 1143.77C2338.39 1317.46 2129.2 1544.93 2195.82 1651.85C2262.43 1758.75 2579.63 1704.62 2904.3 1530.93Z" stroke="#F3F3F3" stroke-opacity="0.1"/>
<path d="M3153.85 1870.52C3979.81 1441.17 4512.01 878.872 4342.54 614.595C4173.07 350.318 3366.11 484.136 2540.15 913.485C1714.17 1342.83 1181.99 1905.13 1351.46 2169.41C1520.93 2433.68 2327.88 2299.86 3153.85 1870.52Z" stroke="#F3F3F3" stroke-opacity="0.1"/>
</svg>
