<svg viewBox="0 0 1080 1080" fill="none" xmlns="http://www.w3.org/2000/svg">
<mask id="mask0_55_109" style="mask-type:luminance" maskUnits="userSpaceOnUse" x="336" y="415" width="408" height="250">
<path d="M744 415H336V665H744V415Z" fill="white"/>
</mask>
<g mask="url(#mask0_55_109)">
<path d="M391.674 485.077C374.046 490.954 353.629 500.107 350.362 518.942C348.234 531.214 355.135 544.059 365.526 550.398C370.599 553.494 376.825 555.672 379.479 561.106C383.602 569.549 376.192 579.23 368.368 584.141C360.546 589.051 351.004 592.946 347.443 601.657C345.095 607.398 346.014 614.085 348.338 619.838C356.86 640.931 381.709 650.169 403.807 649.04C425.906 647.913 446.864 639.018 468.541 634.439C542.981 618.715 621.029 654.406 695.341 638.05C706.905 635.504 718.554 631.521 727.485 623.518C737.552 614.497 743.267 600.886 744.129 587.147C744.952 574.04 740.454 559.282 729.098 553.376C722.462 549.924 714.531 550.064 707.327 551.943C702.727 553.141 698.206 555.019 693.461 555.051C688.717 555.083 683.496 552.628 682.121 547.935C680.676 543.002 683.97 537.91 687.748 534.545C695.433 527.699 705.709 524.28 712.688 516.671C719.404 509.35 722.23 498.435 719.951 488.627C717.672 478.818 710.357 470.42 701.155 467.046C677.704 458.447 652.154 481.892 628.174 475.022C626.393 474.511 624.521 473.725 623.584 472.079C622.669 470.475 622.878 468.438 623.403 466.656C626.34 456.68 637.752 450.33 638.251 439.915C638.523 434.254 635.282 428.958 631.198 425.171C603.136 399.158 562.476 430.101 533.863 439.869C486.813 455.931 438.853 469.347 391.674 485.077Z" fill="#054438"/>
<path d="M648.075 651.68C639.513 604.346 599.317 568.517 551.015 568.517C502.712 568.517 462.516 604.346 453.954 651.68H648.075Z" fill="#EDE7CD"/>
<path d="M569.11 626.943C568.654 630.517 563.292 632.737 557.135 631.898C550.978 631.059 546.356 627.482 546.812 623.907C547.268 620.332 552.63 618.112 558.787 618.951C564.944 619.79 569.566 623.368 569.11 626.943Z" fill="#8FC8E9"/>
<path d="M475.331 608.788L462.274 634.377L458.679 632.418C456.756 631.371 456.019 628.911 457.033 626.926L466.418 608.532C467.433 606.544 469.813 605.783 471.737 606.83L475.331 608.788Z" fill="#EDE7CD"/>
<path d="M638.946 633.844L631.157 613.696L634.931 612.14C636.95 611.307 639.241 612.322 640.047 614.408L644.915 627.003C645.722 629.088 644.738 631.454 642.719 632.287L638.946 633.844Z" fill="#EDE7CD"/>
<path d="M517.97 577.384L495.226 594.256L492.856 590.846C491.588 589.023 491.991 586.481 493.758 585.171L510.106 573.043C511.872 571.733 514.331 572.15 515.599 573.974L517.97 577.384Z" fill="#EDE7CD"/>
<path d="M621.021 605.328L598.686 587.882L601.136 584.535C602.447 582.744 604.916 582.389 606.65 583.743L622.706 596.282C624.439 597.638 624.783 600.189 623.472 601.98L621.021 605.328Z" fill="#EDE7CD"/>
<path d="M519.059 594.726C520.809 598.287 515.94 604.472 508.184 608.539C500.427 612.608 492.72 613.019 490.97 609.458C489.22 605.897 494.089 599.711 501.846 595.644C509.602 591.575 517.309 591.165 519.059 594.726Z" fill="#8FC8E9"/>
<path d="M502.846 598.741C509.852 595.067 516.801 594.389 519.373 596.913C519.472 596.116 519.379 595.377 519.059 594.726C517.309 591.165 509.602 591.575 501.846 595.642C494.089 599.709 489.22 605.896 490.97 609.458C491.139 609.802 491.38 610.098 491.656 610.369C492.101 606.805 496.507 602.067 502.846 598.741Z" fill="#054438"/>
<path d="M613.924 606.985C612.549 609.258 607.419 608.509 602.467 605.31C597.516 602.112 594.617 597.677 595.993 595.404C597.369 593.13 602.498 593.879 607.45 597.078C612.402 600.276 615.3 604.712 613.924 606.985Z" fill="#8FC8E9"/>
<path d="M606.072 598.747C610.544 601.636 613.328 605.528 612.814 607.931C613.293 607.714 613.672 607.402 613.923 606.987C615.299 604.713 612.402 600.277 607.45 597.079C602.499 593.881 597.37 593.131 595.994 595.406C595.861 595.626 595.779 595.871 595.724 596.128C597.862 595.157 602.026 596.134 606.072 598.747Z" fill="#054438"/>
<path d="M558.787 618.951C552.629 618.112 547.267 620.331 546.811 623.906C546.778 624.165 546.779 624.424 546.798 624.683C548.134 621.797 552.965 620.13 558.432 620.874C564.142 621.652 568.525 624.786 568.767 628.09C568.936 627.725 569.058 627.344 569.11 626.943C569.566 623.368 564.944 619.79 558.787 618.951Z" fill="#054438"/>
<path d="M409.014 530.725C409.014 532.579 407.559 534.082 405.764 534.082C403.969 534.082 402.514 532.579 402.514 530.725C402.514 528.87 403.969 527.367 405.764 527.367C407.559 527.367 409.014 528.87 409.014 530.725Z" fill="#8FC8E9"/>
<path d="M594.64 438.779C593.835 438.779 593.182 438.104 593.182 437.273C593.182 436.441 593.835 435.767 594.64 435.767C595.445 435.767 596.098 436.441 596.098 437.273C596.098 438.104 595.445 438.779 594.64 438.779Z" fill="#8FC8E9"/>
<path d="M615.307 466.716C614.502 466.716 613.849 466.041 613.849 465.21C613.849 464.378 614.502 463.704 615.307 463.704C616.112 463.704 616.765 464.378 616.765 465.21C616.765 466.041 616.112 466.716 615.307 466.716Z" fill="#8FC8E9"/>
<path d="M371.763 515.744C370.958 515.744 370.305 515.07 370.305 514.238C370.305 513.407 370.958 512.732 371.763 512.732C372.568 512.732 373.221 513.407 373.221 514.238C373.221 515.07 372.568 515.744 371.763 515.744Z" fill="#8FC8E9"/>
<path d="M580.269 491.685C580.269 492.756 579.429 493.624 578.392 493.624C577.355 493.624 576.515 492.756 576.515 491.685C576.515 490.613 577.355 489.746 578.392 489.746C579.429 489.746 580.269 490.613 580.269 491.685Z" fill="#EDE7CD"/>
<path d="M659.142 580.786C659.142 581.857 658.302 582.725 657.265 582.725C656.228 582.725 655.388 581.857 655.388 580.786C655.388 579.715 656.228 578.847 657.265 578.847C658.302 578.847 659.142 579.715 659.142 580.786Z" fill="#EDE7CD"/>
<path d="M714.52 584.013C714.52 585.084 713.68 585.952 712.643 585.952C711.606 585.952 710.766 585.084 710.766 584.013C710.766 582.942 711.606 582.074 712.643 582.074C713.68 582.074 714.52 582.942 714.52 584.013Z" fill="#EDE7CD"/>
<path d="M419.141 612.297C419.141 613.367 418.301 614.236 417.264 614.236C416.227 614.236 415.387 613.367 415.387 612.297C415.387 611.225 416.227 610.357 417.264 610.357C418.301 610.357 419.141 611.225 419.141 612.297Z" fill="#EDE7CD"/>
<path d="M527.518 471.923C527.518 472.995 526.678 473.863 525.641 473.863C524.604 473.863 523.764 472.995 523.764 471.923C523.764 470.852 524.604 469.984 525.641 469.984C526.678 469.984 527.518 470.852 527.518 471.923Z" fill="#EDE7CD"/>
<path d="M504.76 519.047L507.262 520.524L504.708 521.903L503.277 524.489L501.943 521.849L499.441 520.373L501.994 518.993L503.425 516.408L504.76 519.047Z" fill="#EDE7CD"/>
<path d="M622.635 491.842L624.268 492.807L622.6 493.708L621.668 495.395L620.796 493.673L619.162 492.708L620.83 491.807L621.763 490.12L622.635 491.842Z" fill="#EDE7CD"/>
<path d="M429.799 572.85L431.432 573.815L429.764 574.716L428.831 576.403L427.96 574.681L426.326 573.716L427.994 572.815L428.927 571.128L429.799 572.85Z" fill="#EDE7CD"/>
<path d="M430.732 504.014L432.365 504.979L430.697 505.879L429.764 507.567L428.893 505.844L427.259 504.88L428.927 503.979L429.86 502.292L430.732 504.014Z" fill="#EDE7CD"/>
<path d="M380.765 606.74L382.398 607.705L380.73 608.606L379.797 610.292L378.926 608.57L377.292 607.606L378.958 606.705L379.893 605.017L380.765 606.74Z" fill="#EDE7CD"/>
<path d="M677.606 559.11L679.239 560.075L677.572 560.976L676.638 562.663L675.767 560.94L674.133 559.976L675.8 559.075L676.734 557.388L677.606 559.11Z" fill="#EDE7CD"/>
<path d="M697.767 627.057L699.4 628.022L697.732 628.923L696.8 630.61L695.928 628.888L694.294 627.923L695.96 627.023L696.895 625.335L697.767 627.057Z" fill="#EDE7CD"/>
<g opacity="0.165283">
<path d="M494.942 561.549C494.939 561.544 494.941 561.539 494.946 561.535L503.487 556.319C503.492 556.316 503.494 556.309 503.492 556.304L499.666 549.619C499.663 549.614 499.656 549.612 499.651 549.615L491.11 554.832C491.105 554.834 491.1 554.833 491.097 554.828L468.647 515.591C468.645 515.586 468.639 515.585 468.634 515.588L459.715 521.033C459.71 521.036 459.707 521.043 459.707 521.049L455.504 578.006C455.504 578.011 455.505 578.019 455.507 578.024L458.722 583.642C458.725 583.646 458.732 583.649 458.737 583.646L487.123 566.312C487.127 566.31 487.134 566.311 487.136 566.317L496.966 583.496C496.969 583.501 496.976 583.503 496.981 583.5L504.769 578.742C504.774 578.74 504.774 578.734 504.772 578.729L494.942 561.549ZM463.272 571.83C463.267 571.832 463.26 571.831 463.257 571.826L463.157 571.651C463.154 571.646 463.152 571.638 463.153 571.633L465.819 541.047C465.819 541.041 465.819 541.033 465.819 541.028L465.562 528.618C465.561 528.613 465.564 528.605 465.569 528.602L465.834 528.441C465.838 528.438 465.844 528.441 465.847 528.445L471.228 538.509C471.23 538.514 471.234 538.523 471.237 538.528L483.291 559.594C483.293 559.599 483.292 559.606 483.287 559.608L463.272 571.83Z" fill="#EDE7CD"/>
<path d="M648.525 533.165C648.528 533.161 648.525 533.155 648.521 533.151L639.695 527.549C639.69 527.546 639.682 527.545 639.677 527.547L588.964 550.312C588.958 550.314 588.953 550.32 588.95 550.325L585.642 555.885C585.639 555.891 585.64 555.897 585.645 555.9L613.74 573.734C613.744 573.737 613.747 573.743 613.744 573.747L603.631 590.751C603.628 590.756 603.629 590.762 603.633 590.765L611.343 595.659C611.347 595.662 611.353 595.66 611.356 595.655L621.469 578.652C621.472 578.647 621.478 578.646 621.483 578.649L629.938 584.014C629.942 584.017 629.949 584.015 629.951 584.011L633.886 577.394C633.889 577.389 633.887 577.383 633.883 577.38L625.429 572.014C625.425 572.011 625.423 572.004 625.426 571.999L648.525 533.165ZM617.701 567.095C617.698 567.099 617.692 567.102 617.687 567.098L597.877 554.524C597.872 554.521 597.87 554.515 597.873 554.509L597.977 554.334C597.98 554.33 597.988 554.323 597.993 554.321L625.413 542.473C625.418 542.471 625.426 542.467 625.431 542.464L635.931 536.432C635.936 536.429 635.945 536.429 635.95 536.432L636.211 536.599C636.216 536.602 636.217 536.609 636.214 536.613L630.112 546.227C630.109 546.231 630.104 546.24 630.101 546.244L617.701 567.095Z" fill="#EDE7CD"/>
</g>
<path d="M473.814 473.754C480.086 470.447 487.765 473.019 490.966 479.499C494.167 485.98 491.677 493.912 485.404 497.219C479.131 500.525 471.452 497.953 468.252 491.473C465.051 484.993 467.541 477.06 473.814 473.754Z" fill="#D4ABFF"/>
<path d="M468.252 491.474C469.282 493.56 470.78 495.234 472.543 496.445C472.639 496.287 472.722 496.125 472.775 495.96C473.347 494.164 472.001 491.314 471.295 489.699C470.262 487.337 468.82 485.167 467.045 483.333C466.612 486.019 466.962 488.863 468.252 491.474Z" fill="#B978F1"/>
<path d="M469.894 479.299C469.573 478.98 469.242 478.659 468.869 478.413C468.52 478.979 468.202 479.566 467.943 480.178C469.028 481.081 470.114 481.983 471.2 482.886C472.042 483.586 472.889 484.292 473.608 485.126C474.668 486.353 475.423 487.824 476.136 489.294C477.615 492.348 478.803 495.468 479.966 498.641C481.804 498.589 483.658 498.139 485.404 497.219C486.229 496.784 486.987 496.265 487.676 495.683C487.135 495.188 486.475 494.851 485.851 494.469C484.192 493.454 482.784 492.063 481.393 490.685C477.561 486.89 473.728 483.095 469.894 479.299Z" fill="#B978F1"/>
<path d="M469.805 477.064C471.04 477.557 472.416 477.682 473.656 478.279C474.96 478.907 476.178 479.727 477.256 480.713C478.016 481.408 478.71 482.185 479.529 482.804C479.835 483.034 480.205 483.249 480.571 483.153C481.217 482.982 481.287 482.057 481.127 481.388C480.807 480.059 480.147 478.848 479.494 477.657L477.171 473.416C477.033 473.164 476.883 472.914 476.724 472.669C475.736 472.907 474.757 473.256 473.813 473.754C472.223 474.592 470.878 475.729 469.805 477.064Z" fill="#B978F1"/>
<path d="M479.15 485.341C480.586 487.215 482.235 488.913 484.054 490.391C485.267 491.376 486.563 492.269 487.633 493.417C487.936 493.743 488.247 494.261 488.574 494.852C490.342 493.047 491.538 490.766 492.062 488.317C491.863 488.269 491.663 488.226 491.465 488.19C488.341 487.625 484.907 487.934 482.254 486.139C481.772 485.813 481.322 485.421 480.788 485.198C480.254 484.974 479.589 484.955 479.15 485.341Z" fill="#B978F1"/>
<path d="M479.228 472.333C479.278 472.473 479.34 472.61 479.408 472.73L483.523 480.033C484.375 481.545 485.297 483.129 486.782 483.972C487.928 484.621 489.273 484.749 490.576 484.863C491.016 484.902 491.673 485.044 492.343 485.143C492.299 483.345 491.899 481.534 491.102 479.813C490.577 479.702 490.039 479.635 489.512 479.54C486.537 478.995 483.81 477.132 482.16 474.518C481.723 473.824 481.355 473.084 480.918 472.392C480.358 472.332 479.795 472.316 479.228 472.333Z" fill="#B978F1"/>
<path d="M478.8 472.343C477.978 472.396 477.155 472.534 476.34 472.758C478.875 475.228 481.561 478.312 484.158 481.747C486.79 485.227 489.055 488.702 490.765 491.866C491.169 491.109 491.498 490.313 491.751 489.494C490.101 486.617 488.056 483.545 485.735 480.475C483.444 477.446 481.079 474.68 478.8 472.343Z" fill="#618CE4"/>
<path d="M492.561 493.161C494.638 497.366 495.684 501.138 493.921 502.561C492.259 503.902 489.117 502.425 484.582 498.168C484.174 497.785 484.142 497.13 484.514 496.707C484.886 496.285 485.519 496.255 485.927 496.639C490.52 500.95 492.457 501.121 492.69 500.932C493.568 500.223 491.424 493.002 483.268 482.218C479.846 477.693 476.255 473.752 473.156 471.127C469.608 468.12 468.164 468.087 467.971 468.243C467.728 468.439 467.425 470.508 470.564 476.434C470.827 476.917 470.652 477.562 470.167 477.836C469.683 478.11 469.075 477.926 468.809 477.425C465.734 471.632 465.037 467.988 466.739 466.613C468.202 465.433 470.717 466.388 474.425 469.53C477.634 472.25 481.333 476.304 484.843 480.946C487.222 484.092 490.433 488.853 492.561 493.161Z" fill="#EDE7CD"/>
<path d="M676.237 499.022C681.909 498.987 686.535 503.708 686.569 509.568C686.604 515.427 682.033 520.206 676.361 520.242C670.689 520.277 666.063 515.555 666.029 509.696C665.995 503.836 670.566 499.057 676.237 499.022Z" fill="#8E79FF"/>
<path d="M666.028 509.697C666.039 511.582 666.531 513.348 667.376 514.877C667.5 514.8 667.616 514.715 667.713 514.615C668.754 513.537 668.783 510.982 668.841 509.555C668.925 507.47 668.645 505.369 668.01 503.387C666.758 505.158 666.015 507.335 666.028 509.697Z" fill="#80C2FF"/>
<path d="M671.474 501.549C671.354 501.199 671.229 500.844 671.046 500.527C670.597 500.804 670.164 501.109 669.761 501.451C670.227 502.507 670.692 503.563 671.157 504.618C671.518 505.437 671.88 506.26 672.106 507.129C672.439 508.409 672.468 509.752 672.466 511.076C672.461 513.826 672.223 516.514 671.949 519.233C673.29 519.883 674.782 520.252 676.361 520.242C677.107 520.237 677.833 520.146 678.535 519.985C678.317 519.426 677.961 518.938 677.646 518.429C676.808 517.08 676.282 515.552 675.763 514.041C674.334 509.878 672.904 505.713 671.474 501.549Z" fill="#80C2FF"/>
<path d="M672.193 499.908C672.909 500.725 673.855 501.329 674.538 502.221C675.257 503.161 675.848 504.206 676.277 505.319C676.58 506.103 676.807 506.921 677.181 507.672C677.321 507.951 677.511 508.245 677.808 508.313C678.333 508.432 678.707 507.792 678.827 507.25C679.062 506.174 679.01 505.056 678.958 503.955C678.896 502.648 678.833 501.342 678.771 500.035C678.76 499.803 678.74 499.566 678.711 499.331C677.917 499.133 677.091 499.018 676.237 499.023C674.799 499.033 673.433 499.349 672.193 499.908Z" fill="#80C2FF"/>
<path d="M676.02 509.356C676.397 511.241 676.989 513.081 677.781 514.824C678.309 515.987 678.928 517.114 679.297 518.34C679.401 518.688 679.443 519.177 679.472 519.725C681.375 519.087 683.036 517.892 684.27 516.324C684.144 516.216 684.015 516.109 683.885 516.01C681.833 514.436 679.255 513.375 677.973 511.092C677.741 510.677 677.556 510.227 677.249 509.866C676.943 509.505 676.471 509.243 676.02 509.356Z" fill="#80C2FF"/>
<path d="M680.631 500.024C680.618 500.144 680.616 500.264 680.622 500.376C680.757 502.641 680.892 504.906 681.027 507.17C681.11 508.577 681.218 510.062 681.992 511.224C682.589 512.119 683.513 512.713 684.41 513.281C684.714 513.475 685.137 513.823 685.585 514.145C686.182 512.835 686.528 511.381 686.558 509.844C686.219 509.568 685.855 509.32 685.509 509.053C683.558 507.549 682.248 505.19 681.976 502.692C681.903 502.029 681.898 501.359 681.825 500.698C681.445 500.446 681.045 500.223 680.631 500.024Z" fill="#80C2FF"/>
<path d="M528.927 514.371C545.724 505.115 566.603 511.678 575.563 529.031C584.522 546.382 578.169 567.953 561.372 577.209C544.576 586.464 523.696 579.9 514.736 562.549C505.777 545.196 512.131 523.626 528.927 514.371Z" fill="#D1C7F6"/>
<path d="M557.456 579.042C553.927 569.014 539.392 556.894 535.855 552.391C528.664 543.236 525.533 531.489 520.493 520.897C518.661 522.831 517.074 524.96 515.735 527.229C517.865 530.972 519.304 535.361 521.189 539.282C524.768 546.727 530.399 552.989 533.749 560.547C535.297 564.039 536.361 573.234 538.808 580.781C544.916 581.965 551.361 581.458 557.456 579.042Z" fill="#E3E7F5"/>
<path d="M514.736 562.547C516.384 565.739 518.44 568.563 520.796 570.992C520.938 565.858 517.646 557.539 516.937 555.578C515.665 552.052 513.972 548.393 510.826 546.498C510.782 546.472 510.735 546.449 510.69 546.423C510.78 551.881 512.078 557.4 514.736 562.547Z" fill="#E3E7F5"/>
<path d="M529.356 514.149C531.816 524.421 536.587 534.104 543.226 542.164C546.833 546.544 550.96 550.436 554.679 554.715C559.355 560.093 563.367 566.084 566.611 572.489C566.749 572.758 566.882 573.037 567.014 573.323C572.452 568.723 576.268 562.612 578.191 555.914C571.725 549.813 564.606 544.451 557.001 539.967C550.348 536.043 543.006 532.494 538.8 525.88C536.189 521.774 535.088 516.93 533.735 512.186C532.253 512.725 530.791 513.384 529.356 514.149Z" fill="#E3E7F5"/>
<path d="M539.587 510.647C541.177 515.244 548.738 520.865 551.23 521.887C553.456 522.799 555.848 523.283 557.973 524.422C560.672 525.865 562.755 528.259 564.81 530.572C568.956 535.239 573.231 539.785 577.627 544.203C578.186 544.764 578.852 545.339 579.614 545.344C579.552 539.824 578.252 534.237 575.563 529.03C573.681 525.386 571.269 522.224 568.484 519.579C562.295 518.8 555.452 520.069 550.67 516.077C549.862 515.402 547.856 512.571 545.732 510.185C543.689 510.147 541.632 510.301 539.587 510.647Z" fill="#C199F1"/>
</g>
<g clip-path="url(#clip0_55_109)">
<mask id="mask1_55_109" style="mask-type:luminance" maskUnits="userSpaceOnUse" x="0" y="0" width="1080" height="1080">
<path d="M1080 0H0V1080H1080V0Z" fill="white"/>
</mask>
<g mask="url(#mask1_55_109)">
<path d="M216.565 314.711L201.685 311.475L198.311 296.625C198.191 296.099 197.723 295.726 197.183 295.726C196.643 295.726 196.176 296.099 196.056 296.625L192.666 311.543L177.78 315.072C177.256 315.196 176.887 315.668 176.892 316.208C176.897 316.748 177.275 317.21 177.801 317.325L192.681 320.562L196.056 335.411C196.176 335.937 196.643 336.311 197.183 336.311C197.723 336.311 198.191 335.937 198.311 335.411L201.701 320.494L216.586 316.965C217.111 316.841 217.48 316.37 217.475 315.83C217.47 315.29 217.092 314.826 216.565 314.711Z" fill="#064439"/>
<path d="M233.927 251.6L233.661 251.542L233.601 251.277C233.599 251.267 233.591 251.261 233.581 251.261C233.571 251.261 233.563 251.267 233.561 251.277L233.5 251.543L233.235 251.606C233.225 251.608 233.219 251.617 233.219 251.626C233.219 251.636 233.226 251.644 233.235 251.646L233.501 251.704L233.561 251.969C233.563 251.979 233.571 251.985 233.581 251.985C233.591 251.985 233.599 251.979 233.601 251.969L233.662 251.703L233.927 251.64C233.937 251.638 233.943 251.629 233.943 251.62C233.943 251.61 233.936 251.602 233.927 251.6Z" fill="#064439"/>
<path d="M875.247 906.896L889.908 903.707L893.233 889.077C893.351 888.559 893.811 888.191 894.343 888.191C894.875 888.191 895.335 888.559 895.453 889.077L898.794 903.775L913.459 907.252C913.976 907.375 914.341 907.838 914.336 908.37C914.331 908.902 913.958 909.359 913.439 909.472L898.778 912.661L895.453 927.291C895.335 927.809 894.875 928.178 894.343 928.178C893.811 928.178 893.351 927.809 893.233 927.291L889.893 912.594L875.227 909.117C874.71 908.993 874.346 908.53 874.351 907.998C874.356 907.466 874.728 907.01 875.247 906.896Z" fill="#064439"/>
<path d="M804.786 374.813L804.757 374.807L804.75 374.778C804.75 374.777 804.749 374.776 804.748 374.776C804.747 374.776 804.746 374.777 804.746 374.778L804.739 374.807L804.71 374.814C804.709 374.814 804.708 374.815 804.708 374.816C804.708 374.817 804.709 374.818 804.71 374.818L804.739 374.825L804.746 374.854C804.746 374.855 804.747 374.856 804.748 374.856C804.749 374.856 804.75 374.855 804.75 374.854L804.757 374.825L804.786 374.818C804.787 374.817 804.788 374.817 804.788 374.815C804.788 374.814 804.787 374.813 804.786 374.813Z" fill="#064439"/>
<path d="M338.152 900.269L327.729 898.002L325.365 887.6C325.281 887.232 324.954 886.97 324.576 886.97C324.198 886.97 323.871 887.232 323.787 887.6L321.411 898.05L310.985 900.522C310.617 900.609 310.358 900.939 310.362 901.317C310.365 901.696 310.631 902.02 311 902.101L321.423 904.368L323.787 914.769C323.871 915.137 324.198 915.399 324.576 915.399C324.954 915.399 325.281 915.137 325.365 914.769L327.741 904.319L338.167 901.848C338.535 901.761 338.794 901.431 338.79 901.053C338.787 900.675 338.521 900.35 338.152 900.269Z" fill="#064439"/>
<path d="M309.447 237.779C309.447 237.779 299.984 236.767 291.615 242.717C280.521 250.605 276.221 262.638 276.221 262.638C276.221 262.638 290.323 271.71 303.489 269.068C315.471 266.65 316.319 264.012 319.138 260.496" fill="#ECF6F4"/>
<path d="M310.393 240.185C310.393 240.185 303.185 239.318 296.658 243.959C288.004 250.111 284.716 259.529 284.716 259.529C284.716 259.529 295.549 266.212 305.905 264.528C315.237 263.011 315.753 260.647 317.952 257.904" fill="#ECF6F4"/>
<path d="M341.764 222.812C341.764 222.812 322.793 212.676 290.415 222.951C288.364 223.601 288.204 226.444 290.167 227.324C296.927 230.357 308.052 235.632 312.319 239.297L341.764 222.812Z" fill="#EEE7CE"/>
<path d="M352.399 254.597C352.399 254.597 343.348 274.109 311.305 285.389C309.277 286.103 307.438 283.928 308.475 282.044C312.049 275.554 317.759 264.646 318.961 259.152L352.399 254.597Z" fill="#EEE7CE"/>
<path d="M317.585 232.195C315.006 233.752 312.373 235.4 309.686 237.142L318.143 262.419C321.337 262.193 324.433 261.923 327.43 261.615C372.979 256.934 396.113 243.179 407.708 231.755L399.63 207.609C383.51 205.517 356.778 208.514 317.585 232.195Z" fill="#064439"/>
<path d="M381.006 238.46C375.45 240.32 369.44 237.323 367.581 231.767C365.722 226.212 368.718 220.201 374.274 218.342C379.829 216.483 385.84 219.479 387.699 225.035C389.558 230.591 386.562 236.601 381.006 238.46Z" fill="#ECF6F4"/>
<path d="M407.709 231.755L399.63 207.609C412.804 209.32 418.888 214.432 418.888 214.432L418.956 214.636C418.956 214.636 417.187 222.417 407.709 231.755Z" fill="#EEE7CE"/>
<path d="M346.18 238.365C346.65 239.769 345.974 241.298 344.62 241.896L328.754 248.9C325.488 250.341 322.095 251.476 318.62 252.29L301.733 256.246C300.292 256.583 298.831 255.769 298.361 254.365C297.892 252.962 298.568 251.431 299.922 250.834L315.789 243.831C319.054 242.39 322.448 241.254 325.923 240.44L342.809 236.484C344.251 236.147 345.711 236.962 346.18 238.365Z" fill="#EEE7CE"/>
<path d="M342.701 359.466L399.058 575.002L665.897 505.23L609.538 289.694C606.187 276.879 593.082 269.206 580.267 272.557L359.838 330.193C347.022 333.544 339.35 346.651 342.701 359.466Z" fill="#EEE7CE"/>
<path d="M356.441 397.123L415.464 611.945L681.417 538.874L622.394 324.052C618.885 311.279 605.685 303.769 592.912 307.278L373.214 367.641C360.442 371.15 352.932 384.35 356.441 397.123Z" fill="#064439"/>
<path d="M826.756 647.155C814.549 792.775 686.596 900.918 540.991 888.697C491.07 884.511 445.558 866.718 407.802 839.294C335.37 786.699 291.413 698.63 299.449 602.932C311.656 457.312 439.609 349.169 585.214 361.39C709.219 371.791 806.051 466.118 824.516 583.809C827.736 604.332 828.576 625.54 826.756 647.155Z" fill="#EEE7CE"/>
<path d="M563.568 893.846C555.957 893.846 548.311 893.526 540.639 892.882C491.673 888.777 444.886 871.42 405.334 842.692C368.575 816 338.946 780.166 319.649 739.062C299.757 696.691 291.325 649.496 295.264 602.581C301.262 531.036 334.762 466.11 389.596 419.764C444.429 373.418 514.025 351.201 585.566 357.206C646.778 362.34 702.714 387.272 747.323 429.309C790.613 470.101 819.5 524.739 828.666 583.158C831.988 604.335 832.753 625.986 830.94 647.508L830.941 647.506C824.944 719.052 791.442 783.978 736.609 830.324C687.657 871.7 626.933 893.846 563.568 893.846ZM562.652 364.642C501.263 364.642 442.444 386.093 395.018 426.178C341.898 471.077 309.444 533.974 303.634 603.283C295.944 694.868 335.808 781.827 410.27 835.896C448.58 863.724 493.904 880.534 541.341 884.512C610.653 890.337 678.069 868.807 731.187 823.91C784.307 779.011 816.761 716.114 822.57 646.805L822.571 646.803C824.327 625.951 823.585 604.975 820.367 584.46C801.727 465.651 704.884 375.643 584.863 365.576C577.435 364.952 570.021 364.642 562.652 364.642Z" fill="#064439"/>
<path d="M645.047 681.398C621.878 683.386 601.412 669.708 596.61 650.095C596.162 648.275 595.854 646.386 595.686 644.468C595.084 637.412 596.511 630.595 599.549 624.491C606.227 611.094 620.618 601.154 638.019 599.656C654.454 598.256 669.531 604.724 678.603 615.601C680.381 617.729 681.921 620.025 683.209 622.461C685.491 626.773 686.946 631.532 687.38 636.586C689.326 659.153 670.358 679.214 645.047 681.398Z" fill="#ECF6F4"/>
<path d="M640.673 685.785C617.759 685.785 597.524 671.49 592.53 651.094C592.037 649.087 591.691 646.98 591.502 644.835C590.854 637.236 592.337 629.557 595.79 622.619C603.353 607.446 619.395 597.044 637.659 595.472C654.982 593.993 671.491 600.517 681.828 612.912C683.781 615.248 685.494 617.801 686.921 620.497C689.529 625.426 691.091 630.718 691.564 636.227C693.705 661.06 672.999 683.201 645.407 685.582H645.405C643.818 685.718 642.239 685.785 640.673 685.785ZM642.495 603.665C641.131 603.665 639.757 603.723 638.375 603.841C623.011 605.164 609.573 613.794 603.308 626.365C600.543 631.921 599.353 638.057 599.87 644.11C600.02 645.818 600.295 647.498 600.687 649.093C605.048 666.903 623.963 678.993 644.686 677.213C667.664 675.23 684.939 657.167 683.196 636.947C682.819 632.565 681.575 628.353 679.496 624.425C678.344 622.246 676.959 620.184 675.38 618.294C667.609 608.976 655.534 603.665 642.495 603.665Z" fill="#064439"/>
<path d="M826.756 647.155C814.549 792.775 686.596 900.918 540.991 888.697C491.07 884.511 445.558 866.718 407.802 839.294C522.665 875.286 785.85 854.287 824.516 583.809C827.736 604.332 828.576 625.54 826.756 647.155Z" fill="#064439"/>
<path d="M678.603 615.601C636.129 613.123 610.497 633.17 596.61 650.095C596.162 648.275 595.854 646.386 595.686 644.468C595.084 637.412 596.511 630.595 599.549 624.491C606.227 611.094 620.618 601.154 638.019 599.656C654.454 598.256 669.531 604.724 678.603 615.601Z" fill="#064439"/>
<path d="M523.757 502.254C506.209 503.76 490.707 493.401 487.07 478.546C486.731 477.168 486.497 475.736 486.37 474.283C485.914 468.939 486.996 463.776 489.297 459.153C494.355 449.006 505.254 441.478 518.434 440.343C530.882 439.283 542.302 444.181 549.173 452.42C550.52 454.032 551.686 455.77 552.661 457.615C554.389 460.881 555.492 464.486 555.821 468.314C557.295 485.406 542.928 500.6 523.757 502.254Z" fill="#ECF6F4"/>
<path d="M520.447 506.596C502.627 506.596 486.884 495.448 482.991 479.545C482.605 477.977 482.333 476.328 482.186 474.65C481.679 468.707 482.838 462.704 485.536 457.281C491.423 445.472 503.89 437.379 518.074 436.158C531.532 435.005 544.356 440.086 552.398 449.729C553.924 451.556 555.264 453.55 556.375 455.652C558.414 459.506 559.635 463.645 560.005 467.954C561.676 487.322 545.577 504.586 524.118 506.438L524.116 506.439C522.886 506.544 521.661 506.596 520.447 506.596ZM521.825 444.398C520.82 444.398 519.809 444.44 518.791 444.527C507.507 445.498 497.644 451.821 493.056 461.026C491.045 465.067 490.18 469.528 490.555 473.927C490.664 475.166 490.863 476.385 491.148 477.541C494.333 490.55 508.198 499.373 523.397 498.07C540.241 496.616 552.91 483.43 551.637 468.675C551.364 465.492 550.459 462.433 548.949 459.579C548.111 457.995 547.102 456.492 545.95 455.112C540.257 448.287 531.4 444.398 521.825 444.398Z" fill="#064439"/>
<path d="M549.173 452.42C517.003 450.543 497.588 465.727 487.07 478.546C486.731 477.168 486.497 475.736 486.37 474.283C485.914 468.939 486.996 463.776 489.297 459.153C494.355 449.006 505.254 441.478 518.434 440.343C530.882 439.283 542.302 444.181 549.173 452.42Z" fill="#064439"/>
<path d="M612.789 794.019C604.098 794.765 596.419 789.634 594.618 782.277C594.45 781.594 594.335 780.885 594.272 780.166C594.046 777.519 594.581 774.962 595.721 772.672C598.226 767.646 603.625 763.917 610.153 763.355C616.318 762.83 621.974 765.257 625.377 769.337C626.044 770.135 626.621 770.996 627.104 771.91C627.96 773.528 628.506 775.313 628.669 777.209C629.399 785.675 622.284 793.2 612.789 794.019Z" fill="#ECF6F4"/>
<path d="M611.155 798.289C601.366 798.289 592.699 792.099 590.539 783.275C590.322 782.397 590.171 781.471 590.088 780.531C589.803 777.197 590.451 773.834 591.962 770.8C595.205 764.294 602.036 759.839 609.792 759.172C617.146 758.544 624.176 761.339 628.602 766.647C629.451 767.663 630.197 768.774 630.817 769.947C631.961 772.108 632.646 774.431 632.854 776.85C633.781 787.605 624.943 797.185 613.15 798.203L613.148 798.204C612.48 798.261 611.815 798.289 611.155 798.289ZM611.781 767.486C611.359 767.486 610.934 767.504 610.509 767.54C605.652 767.958 601.425 770.642 599.48 774.545C598.646 776.22 598.302 777.992 598.457 779.808C598.501 780.31 598.581 780.805 598.696 781.272C600.029 786.714 605.939 790.386 612.43 789.835C619.607 789.214 625.015 783.712 624.485 777.57C624.374 776.277 624.006 775.035 623.392 773.875C623.045 773.22 622.63 772.599 622.154 772.03C619.766 769.167 615.877 767.486 611.781 767.486Z" fill="#064439"/>
<path d="M625.377 769.337C609.444 768.408 599.827 775.928 594.618 782.277C594.45 781.594 594.335 780.885 594.272 780.166C594.046 777.519 594.581 774.962 595.721 772.672C598.226 767.646 603.625 763.917 610.153 763.355C616.318 762.83 621.974 765.257 625.377 769.337Z" fill="#064439"/>
<path d="M437.932 768.745C420.149 770.271 404.44 759.773 400.755 744.72C400.411 743.323 400.175 741.872 400.046 740.4C399.584 734.985 400.68 729.752 403.012 725.067C408.137 714.784 419.182 707.156 432.538 706.006C445.152 704.931 456.725 709.895 463.688 718.244C465.053 719.877 466.235 721.639 467.223 723.509C468.974 726.818 470.092 730.472 470.425 734.351C471.919 751.672 457.359 767.069 437.932 768.745Z" fill="#ECF6F4"/>
<path d="M434.578 773.089C416.546 773.089 400.615 761.81 396.676 745.719C396.285 744.13 396.01 742.463 395.862 740.768C395.349 734.755 396.521 728.682 399.252 723.196C405.207 711.247 417.823 703.057 432.178 701.822C445.79 700.652 458.774 705.796 466.913 715.555C468.456 717.402 469.811 719.418 470.936 721.546C472.999 725.446 474.234 729.633 474.609 733.992C476.299 753.588 460.007 771.057 438.293 772.93H438.291C437.046 773.037 435.806 773.089 434.578 773.089ZM435.975 710.06C434.954 710.06 433.928 710.103 432.895 710.191C421.441 711.177 411.429 717.595 406.771 726.941C404.729 731.044 403.849 735.576 404.23 740.044C404.34 741.301 404.544 742.541 404.833 743.717C408.066 756.925 422.139 765.882 437.571 764.561C454.671 763.085 467.532 749.696 466.24 734.712C465.962 731.48 465.045 728.373 463.51 725.473C462.659 723.863 461.635 722.337 460.465 720.937C454.686 714.008 445.694 710.06 435.975 710.06Z" fill="#064439"/>
<path d="M463.688 718.244C431.088 716.342 411.414 731.729 400.755 744.72C400.411 743.323 400.175 741.872 400.046 740.4C399.584 734.985 400.68 729.752 403.012 725.067C408.137 714.784 419.182 707.156 432.538 706.006C445.152 704.931 456.725 709.895 463.688 718.244Z" fill="#064439"/>
<path d="M471.76 599.157C461.555 600.033 452.54 594.008 450.425 585.369C450.228 584.567 450.092 583.736 450.018 582.891C449.753 579.783 450.382 576.78 451.72 574.091C454.661 568.19 461 563.812 468.665 563.152C475.904 562.535 482.545 565.385 486.541 570.176C487.324 571.113 488.003 572.124 488.57 573.197C489.575 575.096 490.216 577.193 490.407 579.419C491.264 589.359 482.909 598.195 471.76 599.157Z" fill="#ECF6F4"/>
<path d="M469.839 603.44C458.678 603.44 448.803 596.403 446.346 586.368C446.1 585.367 445.927 584.318 445.834 583.256C445.511 579.475 446.247 575.662 447.961 572.22C451.655 564.808 459.45 559.731 468.305 558.968C476.698 558.25 484.721 561.437 489.766 567.486C490.728 568.639 491.577 569.9 492.282 571.233C493.579 573.683 494.356 576.317 494.592 579.059C495.646 591.288 485.565 602.182 472.121 603.341L472.119 603.342C471.355 603.407 470.594 603.44 469.839 603.44ZM470.638 567.268C470.103 567.268 469.564 567.291 469.021 567.337C463.067 567.85 457.876 571.156 455.479 575.965C454.439 578.054 454.009 580.265 454.203 582.534C454.258 583.159 454.359 583.778 454.503 584.367C456.151 591.099 463.419 595.651 471.399 594.973C480.229 594.211 486.879 587.395 486.223 579.779C486.084 578.165 485.625 576.612 484.858 575.162C484.427 574.347 483.908 573.575 483.318 572.869C480.341 569.299 475.687 567.268 470.638 567.268Z" fill="#064439"/>
<path d="M486.541 570.176C467.833 569.085 456.542 577.914 450.425 585.369C450.228 584.567 450.092 583.736 450.018 582.891C449.753 579.783 450.382 576.78 451.72 574.091C454.661 568.19 461 563.812 468.665 563.152C475.904 562.535 482.545 565.385 486.541 570.176Z" fill="#064439"/>
<path d="M722.306 569.775C714.086 570.48 706.824 565.628 705.12 558.669C704.961 558.023 704.852 557.352 704.792 556.672C704.578 554.169 705.085 551.75 706.163 549.584C708.532 544.831 713.638 541.304 719.812 540.773C725.643 540.276 730.993 542.571 734.212 546.43C734.843 547.185 735.389 548 735.846 548.864C736.656 550.394 737.172 552.083 737.326 553.876C738.016 561.883 731.286 569 722.306 569.775Z" fill="#ECF6F4"/>
<path d="M720.76 574.041C711.399 574.041 703.109 568.115 701.041 559.667C700.833 558.826 700.687 557.938 700.608 557.038C700.335 553.843 700.956 550.621 702.402 547.713C705.505 541.488 712.038 537.227 719.452 536.589C726.478 535.99 733.201 538.664 737.436 543.741C738.247 544.711 738.962 545.775 739.557 546.899C740.654 548.972 741.312 551.199 741.511 553.517C742.399 563.815 733.945 572.986 722.666 573.959L722.664 573.96C722.026 574.015 721.39 574.041 720.76 574.041ZM721.351 544.907C720.958 544.907 720.565 544.923 720.169 544.957C715.655 545.346 711.726 547.837 709.921 551.458C709.151 553.005 708.833 554.64 708.977 556.315C709.017 556.777 709.092 557.233 709.198 557.663C710.432 562.704 715.906 566.106 721.946 565.591C728.609 565.016 733.632 559.923 733.142 554.237C733.039 553.046 732.7 551.899 732.133 550.828C731.813 550.222 731.428 549.648 730.989 549.124C728.773 546.466 725.158 544.907 721.351 544.907Z" fill="#064439"/>
<path d="M734.212 546.43C719.142 545.551 710.047 552.664 705.12 558.669C704.961 558.023 704.852 557.352 704.792 556.672C704.578 554.169 705.085 551.75 706.163 549.584C708.532 544.831 713.638 541.304 719.812 540.773C725.643 540.276 730.993 542.571 734.212 546.43Z" fill="#064439"/>
<path d="M440.918 364.501C440.918 364.501 422.412 396.59 407.687 411.528C405.679 413.566 403.66 415.743 401.67 418.09L401.669 418.104C401.608 418.169 401.543 418.233 401.486 418.301C397.924 422.494 394.439 427.186 391.191 432.371C390.36 433.697 389.542 435.07 388.745 436.468C387.287 439.024 385.893 441.685 384.585 444.462C381.219 451.605 378.429 459.494 376.533 468.18C375.876 471.092 375.344 474.113 374.918 477.211C373.345 488.66 373.321 501.337 375.488 515.302L313.495 537.358C313.495 537.358 304.078 508.339 307.606 471.023C307.893 467.983 308.269 464.882 308.747 461.745C310.653 449.24 314.128 436.054 319.947 422.865L319.948 422.851C321.253 419.918 322.673 416.987 324.212 414.05C326.347 409.972 327.735 404.4 330.386 400.376C334.402 394.279 340.028 382.021 345.346 376.164C345.546 375.94 345.765 375.722 345.973 375.495C348.255 373.001 350.674 370.546 353.231 368.115C364.537 357.365 379.158 337.569 394.972 326.619L440.918 364.501Z" fill="#ECF6F4"/>
<path d="M310.842 542.761L309.503 538.663C309.105 537.444 299.854 508.375 303.425 470.619C303.727 467.431 304.119 464.23 304.594 461.113C306.699 447.312 310.473 434.101 315.813 421.834L315.814 421.823L316.111 421.144C317.579 417.841 319.033 414.885 320.503 412.078C322.731 407.824 324.218 402.107 326.879 398.065C331.111 391.638 336.943 379.172 342.237 373.341C342.438 373.116 342.682 372.871 342.917 372.614C345.177 370.144 347.688 367.592 350.338 365.072C362.523 353.484 377.279 333.762 392.581 323.168L395.192 321.359L447.952 364.857L431.632 389.917C431.36 390.053 424.599 400.343 410.687 414.466C408.905 416.275 407.283 418.021 405.753 419.781L405.747 419.872L404.622 421.095C401.022 425.341 397.706 429.887 394.751 434.599C393.932 435.905 393.143 437.233 392.397 438.541C390.928 441.114 389.583 443.707 388.385 446.249C384.964 453.511 382.358 461.191 380.636 469.077C380.004 471.881 379.49 474.797 379.081 477.773C377.471 489.491 377.659 501.898 379.637 514.658L380.17 518.093L310.842 542.761ZM323.968 424.148L323.789 424.56C318.593 436.337 314.927 449.061 312.899 462.378C312.448 465.338 312.079 468.38 311.786 471.417C309.088 499.399 313.965 522.736 316.32 531.896L370.843 512.498C369.214 500.139 369.21 488.097 370.757 476.64C371.191 473.431 371.755 470.27 372.436 467.256C374.286 458.782 377.104 450.505 380.785 442.673C382.072 439.934 383.528 437.147 385.096 434.387C385.897 432.978 386.752 431.548 387.632 430.14C390.812 425.058 394.396 420.159 398.284 415.582L398.466 415.376C400.39 413.103 402.435 410.888 404.695 408.581C414.56 398.506 429.1 368.384 434.129 364.347L394.77 331.897C381.229 341.581 367.046 360.776 356.125 371.159C353.615 373.545 351.242 375.957 349.072 378.33C348.81 378.605 348.641 378.782 348.48 378.96C343.453 384.498 337.89 396.62 333.893 402.686C331.384 406.493 330.067 411.98 327.932 415.998C326.586 418.528 325.292 421.191 323.968 424.148Z" fill="#064439"/>
<path d="M376.533 468.18C375.876 471.092 375.336 474.112 374.918 477.211C348.571 458.513 319.612 466.376 307.606 471.023C307.893 467.983 308.27 464.882 308.747 461.745C323.421 456.909 350.752 451.814 376.533 468.18Z" fill="#EEE7CE"/>
<path d="M388.745 436.468C387.287 439.025 385.891 441.684 384.585 444.462C364.586 420.365 332.942 421.285 319.948 422.851C321.252 419.918 322.655 416.978 324.211 414.05C340.202 412.964 368.71 414.698 388.745 436.468Z" fill="#EEE7CE"/>
<path d="M407.687 411.528C405.679 413.566 403.66 415.743 401.67 418.09C387.63 390.234 359.038 376.672 345.973 375.495C348.255 373.001 350.673 370.546 353.231 368.115C368.905 370.797 393.711 386.709 407.687 411.528Z" fill="#EEE7CE"/>
<path d="M320.835 510.665C333.415 502.356 352.942 493.297 373.812 498.07C373.812 498.07 416.306 519.351 420.106 532.115C420.106 532.115 423.145 551.093 395.606 546.778C395.606 546.778 422.809 600.249 377.543 617.103C377.543 617.103 345.216 631.489 325.209 590.488C324.572 589.181 324.086 587.806 323.711 586.4L310.668 537.462C307.952 527.271 312.035 516.478 320.835 510.665Z" fill="#ECF6F4"/>
<path d="M360.942 623.533C348.802 622.609 333.038 616.097 321.435 592.329C320.718 590.862 320.12 589.23 319.653 587.481L306.609 538.543C303.422 526.584 308.209 513.973 318.521 507.16C331.883 498.336 352.487 488.884 374.747 493.975L375.24 494.088L375.691 494.314C383.059 498.004 420.021 517.11 424.131 530.918L424.252 531.451C424.308 531.798 425.544 540.009 419.597 545.977C415.711 549.874 409.894 551.758 402.252 551.605C406.021 561.507 411.362 580.571 404.879 597.197C400.581 608.215 391.891 616.232 379.05 621.023C377.76 621.542 370.468 624.257 360.942 623.533ZM323.15 514.17C315.854 518.989 312.469 527.914 314.726 536.38L327.77 585.318C328.097 586.546 328.505 587.666 328.984 588.647C346.888 625.338 374.677 613.769 375.851 613.259L376.077 613.167C386.602 609.249 393.66 602.849 397.054 594.145C404.749 574.414 391.993 548.938 391.863 548.682L388.136 541.357L396.256 542.629C404.586 543.94 410.585 543.06 413.594 540.101C416.12 537.615 416.052 534.007 415.978 533.006C413.182 525.373 389.119 510.485 372.39 502.056C353.199 497.873 335.043 506.315 323.15 514.17Z" fill="#064439"/>
<path d="M919.404 458.767C921.809 454.556 925.95 451.622 931.819 449.964C937.688 448.313 945.363 447.48 954.844 447.48C964.325 447.48 971.923 448.461 977.644 450.415C983.358 452.376 987.42 455.536 989.833 459.896C992.238 464.263 993.671 468.248 994.122 471.859C994.574 475.471 994.799 480.741 994.799 487.661V738.678C994.799 750.416 993.368 759.071 990.511 764.637C987.647 770.21 983.287 773.893 977.418 775.699C971.549 777.505 964.248 778.407 955.522 778.407C946.789 778.407 939.869 777.66 934.754 776.15C929.633 774.648 925.725 772.841 923.016 770.732C920.307 768.63 918.346 765.618 917.147 761.703C915.341 756.589 914.438 748.765 914.438 738.226V683.147H792.09C771.019 683.147 758.527 677.434 754.618 665.992C753.109 661.181 752.361 654.705 752.361 646.578C752.361 638.452 752.812 632.435 753.715 628.52L791.187 477.277C792.993 470.357 794.572 465.087 795.927 461.476C797.281 457.864 799.991 454.407 804.054 451.092C808.118 447.784 813.309 446.126 819.63 446.126C825.95 446.126 832.87 447.183 840.397 449.286C861.461 455.007 872 464.636 872 478.18C872 482.998 870.941 489.319 868.839 497.142C868.536 497.748 868.388 498.2 868.388 498.496L840.849 608.655H914.438V485.404C914.438 478.484 914.664 473.369 915.116 470.054C915.567 466.745 916.992 462.985 919.404 458.767Z" fill="#EEE7CE"/>
<path d="M955.522 782.607C946.284 782.607 939.102 781.812 933.565 780.178C927.894 778.514 923.596 776.508 920.435 774.046C917.062 771.429 914.613 767.717 913.158 763.018C911.193 757.403 910.238 749.291 910.238 738.226V687.347H792.09C769.121 687.347 755.176 680.619 750.643 667.349C748.962 661.995 748.161 655.233 748.161 646.578C748.161 638.057 748.639 631.842 749.623 627.576L787.11 476.267C788.986 469.077 790.58 463.774 791.995 460.001C793.605 455.709 796.769 451.617 801.399 447.839C806.219 443.915 812.352 441.926 819.63 441.926C826.284 441.926 833.652 443.042 841.527 445.242C864.524 451.488 876.199 462.572 876.199 478.18C876.199 483.398 875.119 489.958 872.896 498.232L872.785 498.642L872.595 499.022C872.589 499.034 872.583 499.047 872.577 499.059L872.463 499.515L846.228 604.455H910.238V485.404C910.238 478.228 910.473 473.022 910.954 469.487C911.484 465.596 913.056 461.408 915.759 456.683C918.718 451.503 923.737 447.882 930.678 445.922C936.911 444.169 945.04 443.281 954.844 443.281C964.736 443.281 972.863 444.344 979.001 446.441C985.708 448.743 990.587 452.584 993.508 457.862C996.168 462.69 997.775 467.223 998.29 471.339C998.767 475.157 998.999 480.496 998.999 487.661V738.678C998.999 751.206 997.445 760.324 994.247 766.555C990.861 773.144 985.614 777.57 978.653 779.712C972.411 781.633 964.629 782.607 955.522 782.607ZM819.63 450.325C814.259 450.325 810.031 451.642 806.705 454.349C803.245 457.172 800.941 460.068 799.86 462.951C798.565 466.401 797.015 471.577 795.251 478.337L757.792 629.53C756.98 633.052 756.56 638.81 756.56 646.578C756.56 654.259 757.255 660.368 758.625 664.735C761.837 674.132 773.107 678.948 792.09 678.948H918.638V738.226C918.638 748.236 919.468 755.664 921.107 760.304L921.163 760.473C922.11 763.567 923.558 765.837 925.59 767.414C927.877 769.194 931.355 770.777 935.936 772.12C940.631 773.506 947.219 774.208 955.522 774.208C963.791 774.208 970.742 773.359 976.183 771.685C980.967 770.213 984.431 767.279 986.775 762.718C989.312 757.775 990.6 749.685 990.6 738.678V487.661C990.6 480.942 990.383 475.801 989.955 472.381C989.573 469.325 988.295 465.807 986.155 461.923C984.25 458.481 981.019 456.014 976.28 454.387C971.024 452.591 963.81 451.68 954.844 451.68C945.809 451.68 938.445 452.463 932.957 454.006C928.147 455.365 924.905 457.604 923.051 460.85L923.049 460.852C920.922 464.571 919.654 467.859 919.277 470.622C918.853 473.733 918.638 478.706 918.638 485.404V612.855H835.47L864.237 497.784C864.326 497.13 864.537 496.444 864.882 495.685C866.819 488.405 867.8 482.517 867.8 478.18C867.8 466.674 858.476 458.548 839.296 453.339C832.127 451.337 825.52 450.325 819.63 450.325Z" fill="#064439"/>
<path d="M243.243 458.767C245.648 454.556 249.79 451.622 255.659 449.964C261.528 448.313 269.202 447.48 278.683 447.48C288.164 447.48 295.762 448.461 301.483 450.415C307.197 452.376 311.26 455.536 313.673 459.896C316.078 464.263 317.51 468.248 317.961 471.859C318.413 475.471 318.639 480.741 318.639 487.661V738.678C318.639 750.416 317.207 759.071 314.35 764.637C311.486 770.21 307.126 773.893 301.257 775.699C295.388 777.505 288.087 778.407 279.361 778.407C270.628 778.407 263.708 777.66 258.593 776.15C253.472 774.648 249.564 772.841 246.855 770.732C244.146 768.63 242.185 765.618 240.986 761.703C239.18 756.589 238.277 748.765 238.277 738.226V683.147H115.929C94.8579 683.147 82.3659 677.434 78.4569 665.992C76.9479 661.181 76.2 654.705 76.2 646.578C76.2 638.452 76.6509 632.435 77.5539 628.52L115.026 477.277C116.832 470.357 118.412 465.087 119.767 461.476C121.121 457.864 123.83 454.407 127.893 451.092C131.957 447.784 137.148 446.126 143.469 446.126C149.789 446.126 156.709 447.183 164.236 449.286C185.3 455.007 195.839 464.636 195.839 478.18C195.839 482.998 194.781 489.319 192.679 497.142C192.376 497.748 192.228 498.2 192.228 498.496L164.688 608.655H238.277V485.404C238.277 478.484 238.503 473.369 238.955 470.054C239.406 466.745 240.831 462.985 243.243 458.767Z" fill="#EEE7CE"/>
<path d="M279.361 782.607C270.123 782.607 262.942 781.812 257.404 780.178C251.733 778.514 247.436 776.508 244.275 774.046C240.902 771.429 238.452 767.717 236.997 763.018C235.033 757.403 234.078 749.291 234.078 738.226V687.347H115.929C92.96 687.347 79.016 680.619 74.483 667.349C72.802 661.995 72 655.233 72 646.578C72 638.057 72.478 631.842 73.462 627.576L110.95 476.267C112.826 469.077 114.419 463.774 115.834 460.001C117.444 455.709 120.608 451.617 125.238 447.839C130.058 443.915 136.191 441.926 143.469 441.926C150.123 441.926 157.491 443.042 165.366 445.242C188.363 451.488 200.038 462.572 200.038 478.18C200.038 483.398 198.958 489.958 196.735 498.232L196.624 498.642L196.434 499.022C196.428 499.034 196.422 499.047 196.416 499.059L196.302 499.515L170.067 604.455H234.078V485.404C234.078 478.228 234.312 473.022 234.793 469.487C235.323 465.596 236.895 461.408 239.598 456.683C242.557 451.503 247.576 447.882 254.517 445.922C260.75 444.169 268.879 443.281 278.683 443.281C288.575 443.281 296.702 444.344 302.84 446.441C309.547 448.743 314.426 452.584 317.347 457.862C320.007 462.69 321.614 467.223 322.129 471.339C322.606 475.157 322.838 480.496 322.838 487.661V738.678C322.838 751.206 321.284 760.324 318.086 766.555C314.7 773.144 309.453 777.57 302.492 779.712C296.25 781.633 288.468 782.607 279.361 782.607ZM143.469 450.325C138.098 450.325 133.87 451.642 130.544 454.349C127.084 457.172 124.78 460.068 123.699 462.951C122.404 466.401 120.854 471.577 119.09 478.337L81.631 629.53C80.819 633.052 80.399 638.81 80.399 646.578C80.399 654.259 81.094 660.368 82.464 664.735C85.676 674.132 96.946 678.948 115.929 678.948H242.477V738.226C242.477 748.236 243.308 755.664 244.946 760.304L245.002 760.473C245.949 763.567 247.397 765.837 249.429 767.414C251.716 769.194 255.195 770.777 259.776 772.12C264.471 773.506 271.058 774.208 279.361 774.208C287.63 774.208 294.581 773.359 300.022 771.685C304.805 770.213 308.27 767.279 310.614 762.718C313.151 757.775 314.439 749.685 314.439 738.678V487.661C314.439 480.942 314.222 475.801 313.794 472.381C313.412 469.325 312.134 465.807 309.994 461.923C308.089 458.481 304.858 456.014 300.119 454.387C294.863 452.591 287.649 451.68 278.683 451.68C269.648 451.68 262.284 452.463 256.796 454.006C251.986 455.365 248.744 457.604 246.89 460.85L246.889 460.852C244.762 464.571 243.493 467.859 243.116 470.622C242.692 473.733 242.477 478.706 242.477 485.404V612.855H159.309L188.076 497.784C188.165 497.13 188.376 496.444 188.721 495.685C190.658 488.405 191.639 482.517 191.639 478.18C191.639 466.674 182.316 458.548 163.136 453.339C155.967 451.337 149.359 450.325 143.469 450.325Z" fill="#064439"/>
<path d="M726.269 421.371L662.392 437.17C656.411 424.163 649.298 413.491 641.52 404.742C639.541 402.47 637.491 400.34 635.423 398.336C629.488 392.585 620.094 385.072 614.259 380.5C611.893 378.645 609.486 376.931 607.054 375.35C600.634 371.11 594.151 367.752 587.876 365.111C585.029 363.914 582.247 362.852 579.515 361.922C558.489 354.766 526.838 334.837 526.838 334.837L552.335 281.016C572.193 284.377 595.583 299.247 611.119 303.901C614.698 304.974 618.166 306.158 621.527 307.424C633.623 311.98 644.139 318.778 653.498 325.357C656.223 327.272 658.845 329.258 661.356 331.291C672.585 340.385 681.16 347.34 689.558 356.837C691.64 359.192 693.621 361.552 695.5 363.916C718.369 392.683 726.269 421.371 726.269 421.371Z" fill="#ECF6F4"/>
<path d="M731.463 424.413L660.027 442.082L658.576 438.924C653.092 426.997 646.297 416.435 638.382 407.532C636.563 405.446 634.648 403.435 632.498 401.351C627.09 396.11 617.599 388.453 611.686 383.819C609.442 382.061 607.12 380.401 604.766 378.872C599.005 375.067 592.784 371.733 586.24 368.979C583.613 367.874 580.892 366.827 578.15 365.893C558.174 359.095 526.366 339.012 526.208 338.989L520.633 338.135L549.9 276.344L553.036 276.875C572.249 280.127 598.377 291.751 613.566 299.126C617.098 300.84 619.672 302.238 623.025 303.501C634.794 307.935 645.782 314.801 655.913 321.922C658.713 323.89 661.433 325.949 664.003 328.03C674.598 336.611 683.255 343.365 692.698 354.047C694.833 356.463 696.879 358.902 698.789 361.305C721.924 390.408 729.986 419.051 730.318 420.257L731.463 424.413ZM664.716 432.269L720.894 418.374C717.844 409.571 709.245 387.968 692.212 366.531C690.394 364.242 688.449 361.91 686.412 359.618C677.438 349.523 668.728 342.687 658.713 334.555C656.291 332.588 653.724 330.652 651.082 328.793C641.53 322.076 631.213 315.473 620.108 311.229C616.933 310.017 613.622 309.046 610.227 307.549C599.628 302.876 573.878 291.375 554.758 285.71L532.918 331.813C539.541 333.413 566.469 353 580.867 357.945C583.796 358.952 586.7 360.054 589.505 361.24C596.525 364.208 603.204 367.775 609.368 371.845C611.903 373.492 614.42 375.31 616.85 377.195C623.233 382.144 632.515 389.667 638.345 395.32C640.665 397.57 642.739 399.748 644.686 401.981C652.421 410.682 659.156 420.866 664.716 432.269Z" fill="#064439"/>
<path d="M705.418 403.143C690.342 403.154 669.058 406.37 654.285 421.865C654.285 421.865 630.585 463.06 634.458 475.801C634.458 475.801 642.393 493.307 662.982 474.514C662.982 474.514 669.794 534.119 716.846 523.201C716.846 523.201 751.747 517.364 745.81 472.13C745.621 470.688 745.266 469.273 744.803 467.895L728.682 419.881C725.325 409.883 715.965 403.135 705.418 403.143Z" fill="#ECF6F4"/>
<path d="M721.468 526.264C719.596 526.898 718.254 527.199 717.753 527.302C704.399 530.39 692.727 528.5 683.064 521.681C668.484 511.393 662.421 492.543 660.101 482.207C653.812 486.552 647.92 488.189 642.53 487.082C634.277 485.385 630.777 477.855 630.632 477.535L630.519 477.285L630.439 477.023C626.249 463.239 646.535 426.914 650.644 419.771L650.897 419.333L651.245 418.967C667.004 402.437 689.401 398.954 705.415 398.943C717.774 398.935 728.724 406.811 732.664 418.544L748.785 466.559C749.361 468.278 749.762 469.968 749.973 471.583C755.12 510.809 731.176 522.98 721.468 526.264ZM666.222 465.871L667.154 474.037C667.187 474.319 670.667 502.676 687.931 514.835C695.56 520.207 704.969 521.646 715.897 519.111L716.153 519.059C717.393 518.841 746.94 513.161 741.645 472.677C741.502 471.582 741.232 470.454 740.822 469.231L724.701 421.218C721.912 412.912 714.164 407.336 705.421 407.343C691.169 407.353 671.371 410.332 657.669 424.405C648.366 440.673 636.509 466.38 638.394 474.275C638.859 475.105 640.793 478.186 644.294 478.869C648.437 479.677 653.92 477.099 660.15 471.412L666.222 465.871Z" fill="#064439"/>
<path d="M695.5 363.916C681.211 368.07 654.979 378.908 641.52 404.742C639.541 402.47 637.49 400.341 635.423 398.336C649.522 373.306 673.913 361.834 689.558 356.837C691.64 359.192 693.622 361.551 695.5 363.916Z" fill="#EEE7CE"/>
<path d="M661.356 331.291C648.794 335.26 624.074 347.126 614.259 380.5C611.893 378.645 609.486 376.931 607.054 375.35C617.071 344.975 638.947 331.292 653.498 325.357C656.223 327.272 658.847 329.254 661.356 331.291Z" fill="#EEE7CE"/>
<path d="M621.526 307.424C610.68 312.851 587.537 329.564 587.876 365.112C585.029 363.914 582.244 362.859 579.515 361.922C580.401 330.632 598.242 312.367 611.119 303.902C614.698 304.974 618.172 306.142 621.526 307.424Z" fill="#EEE7CE"/>
<path d="M524.87 201.21L538.873 196.405C546.32 193.85 554.428 197.815 556.983 205.262L567.981 237.321C570.536 244.768 566.571 252.874 559.124 255.429L545.121 260.234L524.87 201.21Z" fill="#064439"/>
<path d="M344.615 263.055L330.611 267.86C323.165 270.415 319.199 278.522 321.754 285.969L332.754 318.026C335.309 325.473 343.416 329.439 350.863 326.884L364.866 322.079L344.615 263.055Z" fill="#064439"/>
<path d="M342.931 297.266C362.339 353.834 423.93 383.957 480.497 364.549C537.065 345.141 567.188 283.55 547.78 226.983C528.372 170.415 466.782 140.292 410.214 159.7C353.646 179.108 323.523 240.699 342.931 297.266Z" fill="#ECF6F4"/>
<path d="M460.782 373.58C438.77 376.673 416.346 373.154 395.935 363.171C368.944 349.97 348.709 327.049 338.959 298.629C318.83 239.961 350.184 175.856 408.851 155.728C437.269 145.975 467.788 147.877 494.778 161.078C521.768 174.279 542.001 197.201 551.752 225.62C571.881 284.287 540.527 348.391 481.86 368.52C474.932 370.898 467.878 372.583 460.782 373.58ZM431.082 158.991C424.515 159.914 417.99 161.472 411.578 163.672C357.292 182.298 328.278 241.617 346.903 295.903C355.927 322.2 374.65 343.41 399.625 355.625C424.599 367.839 452.837 369.598 479.134 360.577C533.42 341.951 562.433 282.632 543.808 228.346C534.784 202.048 516.062 180.839 491.087 168.623C472.202 159.387 451.448 156.129 431.082 158.991Z" fill="#064439"/>
<path d="M527.971 252.667L516.178 218.29C508.113 194.785 482.521 182.269 459.016 190.333L391.078 213.643C367.572 221.707 355.055 247.299 363.119 270.805L374.914 305.18C382.979 328.685 408.57 341.202 432.076 333.138L500.014 309.828C523.519 301.763 536.036 276.172 527.971 252.667Z" fill="#064439"/>
<path d="M486.344 236.904C488.235 242.417 494.238 245.353 499.751 243.462C505.264 241.57 508.2 235.568 506.308 230.055C504.416 224.542 498.414 221.606 492.901 223.498C487.389 225.389 484.452 231.391 486.344 236.904Z" fill="#ECF6F4"/>
<path d="M471.104 219.819C472.337 223.414 476.252 225.328 479.847 224.095C483.442 222.862 485.357 218.947 484.124 215.352C482.891 211.756 478.975 209.842 475.38 211.075C471.784 212.308 469.871 216.224 471.104 219.819Z" fill="#ECF6F4"/>
</g>
</g>
<defs>
<clipPath id="clip0_55_109">
<rect width="1080" height="1080" fill="white"/>
</clipPath>
</defs>
</svg>
